<svg width="18" height="19" viewBox="0 0 18 19" fill="none" xmlns="http://www.w3.org/2000/svg">
<path d="M16.2364 12.4393L13.6912 12.1487C13.392 12.1136 13.0886 12.1467 12.804 12.2456C12.5194 12.3446 12.2609 12.5067 12.0479 12.7199L10.2042 14.5636C7.35968 13.1169 5.04761 10.8048 3.60092 7.96028L5.45465 6.10654C5.88552 5.67567 6.09594 5.07446 6.0258 4.46323L5.73522 1.93813C5.67841 1.44932 5.44382 0.998471 5.07613 0.671422C4.70843 0.344374 4.2333 0.163967 3.7412 0.164552H2.00771C0.875436 0.164552 -0.0664603 1.10645 0.00368089 2.23874C0.53475 10.796 7.37852 17.6298 15.9257 18.1609C17.058 18.231 17.9999 17.2891 17.9999 16.1568V14.4233C18.0099 13.4113 17.2484 12.5596 16.2364 12.4393V12.4393Z" fill="#2B3845"/>
</svg>
