<svg width="20" height="17" viewBox="0 0 20 17" fill="none" xmlns="http://www.w3.org/2000/svg">
<path d="M2 16.1646C1.45 16.1646 0.979333 15.9689 0.588 15.5776C0.196 15.1856 0 14.7146 0 14.1646V2.16455C0 1.61455 0.196 1.14388 0.588 0.752551C0.979333 0.360551 1.45 0.164551 2 0.164551H18C18.55 0.164551 19.021 0.360551 19.413 0.752551C19.8043 1.14388 20 1.61455 20 2.16455V14.1646C20 14.7146 19.8043 15.1856 19.413 15.5776C19.021 15.9689 18.55 16.1646 18 16.1646H2ZM10 8.98955C10.0833 8.98955 10.1707 8.97688 10.262 8.95155C10.354 8.92688 10.4417 8.88955 10.525 8.83955L17.6 4.41455C17.7333 4.33122 17.8333 4.22722 17.9 4.10255C17.9667 3.97722 18 3.83955 18 3.68955C18 3.35622 17.8583 3.10622 17.575 2.93955C17.2917 2.77288 17 2.78122 16.7 2.96455L10 7.16455L3.3 2.96455C3 2.78122 2.70833 2.77688 2.425 2.95155C2.14167 3.12688 2 3.37288 2 3.68955C2 3.85622 2.03333 4.00188 2.1 4.12655C2.16667 4.25188 2.26667 4.34788 2.4 4.41455L9.475 8.83955C9.55833 8.88955 9.646 8.92688 9.738 8.95155C9.82933 8.97688 9.91667 8.98955 10 8.98955Z" fill="#2B3845"/>
</svg>
