<svg width="18" height="22" viewBox="0 0 18 22" fill="none" xmlns="http://www.w3.org/2000/svg">
<path d="M11.9232 13.0148C11.7927 12.9724 10.9682 12.6026 11.4834 11.0445H11.476C12.8191 9.66838 13.8454 7.45403 13.8454 5.27396C13.8454 1.92183 11.6048 0.164551 9.00082 0.164551C6.39517 0.164551 4.16691 1.92101 4.16691 5.27396C4.16691 7.46301 5.18751 9.68633 6.53874 11.0592C7.06545 12.4337 6.12361 12.9438 5.92671 13.0156C3.19964 13.9967 0 15.785 0 17.5504V18.2124C0 20.6177 4.68788 21.1646 9.02625 21.1646C13.3712 21.1646 18 20.6177 18 18.2124V17.5504C18 15.7319 14.7848 13.9575 11.9232 13.0148Z" fill="#2B3845"/>
</svg>
